<svg id="Layer_1" data-name="Layer 1" xmlns="http://www.w3.org/2000/svg" viewBox="0 0 220 69.5"><defs><style>.cls-1{fill:#fff;}</style></defs><path class="cls-1" d="M72,62.75l2,.47c0,.43-.1.64-.32.64l-2.37-.08-2,.08c-.21,0-.32-.21-.32-.64l1.6-.47,4.93-13.86h1.62l5,13.86,1.6.47c0,.43-.11.64-.32.64s-.88,0-2.12-.08l-2.55.08c-.21,0-.32-.21-.32-.64l1.93-.47L79,59l-5.88.3Zm4.13-12.13L73.57,58H78.7Z"/><path class="cls-1" d="M91.47,63.86l-4.7-.12L85,63.86c-.26,0-.38-.22-.38-.66L86,62.9V54.36l-1.36-.29c0-.45.12-.67.38-.67l1.78.07,1.73-.07c.24,0,.36.22.36.64l-1.37.32v8.46h3.45l.36-1.22a.39.39,0,0,1,.25-.3,2,2,0,0,1,.65-.07l-.13,2.38C92,63.78,91.84,63.86,91.47,63.86Z"/><path class="cls-1" d="M94.58,53.4l2.71.13,3.17,7.21L104,53.53l2.54-.13c.12,0,.21.08.27.23a1.06,1.06,0,0,1,.1.46l-1.35.32L106,62.9l.69.14a4.61,4.61,0,0,1,.68.16q0,.66-.36.66l-1.82-.12-1.78.12c-.25,0-.38-.22-.38-.66l1.5-.32-.32-7.34-3.73,7.6H100l-3.4-7.45-.28,7.21,1.48.3c0,.44-.14.66-.41.66l-1.75-.12-1.61.12q-.36,0-.36-.66l1.37-.3c.05-.95.14-2.37.24-4.26s.19-3.3.25-4.25l-1.35-.3C94.21,53.63,94.33,53.4,94.58,53.4Z"/><path class="cls-1" d="M114.64,53.23a5.48,5.48,0,0,1,3.83,1.35,5.07,5.07,0,0,1,1.5,4,5.29,5.29,0,0,1-1.51,4A5.47,5.47,0,0,1,114.54,64a4.95,4.95,0,0,1-5.31-5.41,5.13,5.13,0,0,1,1.54-4A5.56,5.56,0,0,1,114.64,53.23ZM110.9,58.6a4.84,4.84,0,0,0,1,3.34,3.39,3.39,0,0,0,2.67,1.15,3.42,3.42,0,0,0,2.68-1.15,4.83,4.83,0,0,0,1-3.3,4.7,4.7,0,0,0-1-3.26,3.47,3.47,0,0,0-2.68-1.12,7.62,7.62,0,0,0-2.18.32,3.4,3.4,0,0,0-1.1,1.59A6.66,6.66,0,0,0,110.9,58.6Z"/><path class="cls-1" d="M129.32,53.4l2,.07,1.46-.07c.24,0,.36.25.36.67l-1.22.32-.06,9.47h-1l-6.63-8.23c0,.8,0,2,.09,3.62s.07,2.84.08,3.65c.36.09.92.19,1.69.3,0,.44-.13.66-.38.66l-2-.12-1.6.12q-.39,0-.39-.66l1.41-.32-.06-8.49-1.35-.3q0-.69.39-.69l2.24.07,6.36,8-.13-7.12-1.69-.3Q129,53.4,129.32,53.4Z"/><path class="cls-1" d="M137.56,53.47c1.32-.13,2.23-.21,2.71-.24a6.79,6.79,0,0,1,4,1.11A3.91,3.91,0,0,1,145.55,56a5.93,5.93,0,0,1,.48,2.48,5.34,5.34,0,0,1-1.5,4.11,5.67,5.67,0,0,1-4,1.39l-2.93-.21-1.8.12c-.25,0-.38-.22-.38-.66l1.37-.3V54.36l-1.37-.29c0-.45.13-.67.38-.67S136.59,53.42,137.56,53.47Zm.85,5-.21,4.3a13.67,13.67,0,0,0,2.63.22,3.25,3.25,0,0,0,2.51-1.11,4.74,4.74,0,0,0,1-3.3q0-4.37-4-4.36a12.13,12.13,0,0,0-2.12.21Z"/><path class="cls-1" d="M161.18,52V50l-5,.06.19,6,5.27,0V57l-5.29.28-.17,5.52,2.37.47c0,.43-.1.64-.32.64-.61,0-1.58,0-2.91-.08l-2.2.08c-.21,0-.32-.21-.32-.64l1.8-.47V50l-1.8-.47c0-.43.11-.64.32-.64l2.2.08,6.64-.08c.44,0,.67.07.68.21l-.51,3.19C161.48,52.29,161.18,52.19,161.18,52Z"/><path class="cls-1" d="M166.12,62.9l1.43.3c0,.44-.13.66-.38.66l-1.86-.06-1.48.06c-.24,0-.36-.21-.36-.64l1.24-.32,3.61-9.5h1.39l3.66,9.48,1.24.34c0,.43-.12.64-.37.64l-1.72-.06-1.87.06c-.25,0-.38-.22-.38-.66l1.45-.3-.85-2.37-4,.21Zm2.76-7.85-1.63,4.58h3.28Z"/><path class="cls-1" d="M178.76,59.46l-.15,3.44,1.63.3q0,.66-.36.66L178,63.74l-1.77.12q-.39,0-.39-.66l1.37-.3V54.36l-1.37-.29c0-.45.13-.67.39-.67s.8,0,1.77.07l2.18-.07a3.53,3.53,0,0,1,2.48.84,2.64,2.64,0,0,1,.92,2.07,2.58,2.58,0,0,1-.51,1.5,3.22,3.22,0,0,1-1.5,1.11L184.67,64l-1.09.32L180,59.26Zm.05-1,.77,0a2.79,2.79,0,0,0,1.87-.68,2,2,0,0,0,.1-2.89,2.28,2.28,0,0,0-1.67-.62l-1.27.1Z"/><path class="cls-1" d="M187,53.4l2.72.13,3.17,7.21,3.5-7.21L199,53.4c.11,0,.2.08.27.23a1.22,1.22,0,0,1,.09.46l-1.34.32.51,8.49.68.14a4.86,4.86,0,0,1,.69.16q0,.66-.36.66l-1.82-.12-1.78.12c-.26,0-.38-.22-.38-.66l1.49-.32-.32-7.34L193,63.14h-.49l-3.4-7.45-.28,7.21,1.47.3c0,.44-.13.66-.4.66l-1.76-.12-1.6.12c-.24,0-.37-.22-.37-.66l1.37-.3c.06-.95.14-2.37.25-4.26s.19-3.3.25-4.25l-1.35-.3Q186.66,53.4,187,53.4Z"/><path class="cls-1" d="M209.21,61.25a2.36,2.36,0,0,1-1.07,2.06,4.81,4.81,0,0,1-2.74.73,9.68,9.68,0,0,1-3.51-.73,10.65,10.65,0,0,1,.27-1.66c.15-.65.23-1,.24-1,.55,0,.82.1.82.32v1.54a4.48,4.48,0,0,0,2.14.51,2.65,2.65,0,0,0,1.71-.45,1.42,1.42,0,0,0,.53-1.15,1.7,1.7,0,0,0-1-1.5l-2.74-1.48a3.46,3.46,0,0,1-1.25-1.1,2.3,2.3,0,0,1-.44-1.34,2.5,2.5,0,0,1,1-2,4.21,4.21,0,0,1,2.73-.82,9.09,9.09,0,0,1,2.87.56l-.45,2.46c-.62,0-.92-.11-.92-.32V54.51a5,5,0,0,0-1.61-.27,2.4,2.4,0,0,0-2.16,1,1.69,1.69,0,0,0-.08.56,1.76,1.76,0,0,0,1.11,1.52l2.67,1.41a4.1,4.1,0,0,1,1.44,1.17A2.42,2.42,0,0,1,209.21,61.25Z"/><path class="cls-1" d="M22.8,20.79v-1.7H35.56V49.53a15.14,15.14,0,0,1-3.48,10.35,11.5,11.5,0,0,1-9.1,4h-.59a13,13,0,0,1-8.6-3.33v-2.4a11.57,11.57,0,0,0,8.84,4,10,10,0,0,0,8.07-3.49,13.39,13.39,0,0,0,2.93-8.92v-29Z"/><path class="cls-1" d="M44.34,19.09h1.87q9.84,0,15.86,6.47a21.94,21.94,0,0,1,6,15.51,21.9,21.9,0,0,1-6,15.48Q56.1,63,46.21,63H44.34Zm2.34,1.76h-.47V61.17h.47a18.26,18.26,0,0,0,14-5.91,20.19,20.19,0,0,0,5.47-14.19A20.4,20.4,0,0,0,60.7,26.82,18.17,18.17,0,0,0,46.68,20.85Z"/><path class="cls-1" d="M17.35,19.4A24.48,24.48,0,0,1,4.17,26.57a36.6,36.6,0,0,1,8.56-8.1c1.9-1.29,4.28-2.44,6.44-1.64Z"/><path class="cls-1" d="M15.17,10.91A19.41,19.41,0,0,0,8.66,5.36a.72.72,0,0,0-.54-.16c-.29.06-.39.42-.41.71a6.27,6.27,0,0,0,1.91,4.8,10.38,10.38,0,0,0,4.63,2.53,2.07,2.07,0,0,0,1.41,0c.44-.21.6-.55.3-1.19Z"/></svg>