<svg id="Layer_1" data-name="Layer 1" xmlns="http://www.w3.org/2000/svg" viewBox="0 0 209.98 64.72"><defs><style>.cls-1{font-size:21.4px;font-family:MateSC-Regular, Mate SC;}.cls-1,.cls-2,.cls-3{fill:#fff;}.cls-2{font-size:58.52px;font-family:PoiretOne-Regular, Poiret One;}</style></defs><text class="cls-1" transform="translate(67.8 61.38)">Almond Farms</text><text class="cls-2" transform="translate(11.12 60.5)">JD</text><path class="cls-3" d="M15.85,16.91A24.59,24.59,0,0,1,2.66,24.09,36.84,36.84,0,0,1,11.22,16c1.91-1.29,4.28-2.44,6.44-1.64Z"/><path class="cls-3" d="M13.66,8.43a19.44,19.44,0,0,0-6.5-5.56.78.78,0,0,0-.54-.16c-.29.07-.39.42-.41.72a6.3,6.3,0,0,0,1.91,4.8,10.26,10.26,0,0,0,4.63,2.52,2,2,0,0,0,1.41,0c.43-.21.6-.55.3-1.18Z"/></svg>